<svg width="16" height="7" viewBox="0 0 16 7" fill="none" xmlns="http://www.w3.org/2000/svg">
<path d="M4.42883 1.63318C4.42883 1.49727 4.44106 1.32922 4.50747 1.1595C4.65447 0.783821 4.97009 0.347292 5.52369 0.130966C6.08701 -0.0891547 6.80511 -0.0459994 7.673 0.369169C7.84723 0.45251 8.06961 0.45085 8.26167 0.358931C8.69421 0.151914 9.25939 -0.0246348 9.82977 0.0211446C10.429 0.0692475 10.9949 0.361327 11.3744 1.01314L11.3998 1.05888C11.5206 1.28865 11.5552 1.53294 11.5552 1.74779V3.75771H10.75V1.74779C10.75 1.60281 10.7257 1.4841 10.6775 1.39225L10.6675 1.37428C10.4187 0.947025 10.094 0.799385 9.76096 0.772656C9.39906 0.743618 8.99031 0.857142 8.62804 1.03053C8.23668 1.21783 7.75949 1.24136 7.3465 1.05918L7.30671 1.04091C6.57594 0.69134 6.11258 0.71814 5.83376 0.827088C5.56326 0.932786 5.38178 1.14852 5.28236 1.37391L5.26356 1.41906C5.24412 1.46874 5.23407 1.53541 5.23407 1.63318V3.75771H4.42883V1.63318Z" fill="url(#paint0_linear_1632_1906)"/>
<path d="M1.77777 3.23788C2.64868 3.10444 3.86894 3.25256 5.55588 3.82006L5.77024 3.89253C6.8319 4.25386 7.74362 4.59512 8.54101 4.8997C9.3952 5.22599 10.1073 5.50592 10.7403 5.72745C12.0069 6.1707 12.8735 6.34806 13.7497 6.18802C14.2029 6.10522 14.6774 5.84861 14.9573 5.53955C15.0952 5.38733 15.1688 5.24153 15.1889 5.1164C15.2062 5.00852 15.1876 4.89765 15.1033 4.77869L15.0856 4.75475C14.868 4.47416 14.3399 4.1542 13.18 4.05126C12.4479 3.98629 11.6979 4.14021 10.9504 4.38588L9.8209 4.75703L8.88236 4.3258L10.6837 3.67422L10.8341 3.6259C11.5908 3.38922 12.4142 3.22571 13.256 3.30041C14.5198 3.41258 15.3238 3.77844 15.7371 4.31149L15.7576 4.33852C15.9646 4.61878 16.0337 4.92651 15.9852 5.22858C15.9367 5.53031 15.7757 5.80196 15.5714 6.02752C15.1669 6.47406 14.5269 6.81446 13.9039 6.92826C12.7982 7.13024 11.7537 6.88721 10.4585 6.43396C9.81063 6.20724 9.07918 5.91983 8.23692 5.59811C7.44387 5.29518 6.54287 4.95802 5.49525 4.60147L5.28371 4.52988C3.65127 3.98072 2.58278 3.87882 1.90775 3.98225C1.2796 4.0785 1.00305 4.34765 0.880364 4.61738L0.868962 4.64353C0.695495 5.05756 0.893011 5.59308 1.32403 5.85502C1.89268 6.2006 2.75743 6.24494 3.71223 6.09433C4.64934 5.94651 5.58384 5.62499 6.21226 5.34326L7.07056 5.79656C6.39001 6.10166 4.87257 6.67617 3.846 6.83811C2.85285 6.99477 1.75071 6.99222 0.924873 6.511L0.885712 6.48773C0.166984 6.05092 -0.207855 5.14889 0.119395 4.36791L0.141964 4.3165C0.384307 3.78832 0.9083 3.3711 1.77777 3.23788Z" fill="url(#paint1_linear_1632_1906)"/>
<defs>
<linearGradient id="paint0_linear_1632_1906" x1="7.99203" y1="0" x2="7.99203" y2="3.75771" gradientUnits="userSpaceOnUse">
<stop stop-color="#F29E03"/>
<stop offset="1" stop-color="#DA7201"/>
</linearGradient>
<linearGradient id="paint1_linear_1632_1906" x1="0" y1="5.09609" x2="16" y2="5.09609" gradientUnits="userSpaceOnUse">
<stop stop-color="#DA7201"/>
<stop offset="1" stop-color="#F29E03"/>
</linearGradient>
</defs>
</svg>
