<svg width="199" height="93" viewBox="0 0 199 93" fill="none" xmlns="http://www.w3.org/2000/svg">
<path d="M55 21.6534C55 19.8515 55.1519 17.6234 55.9766 15.3731C57.8021 10.3922 61.7216 4.60455 68.5967 1.7364C75.5923 -1.18205 84.5101 -0.60988 95.2881 4.8946C97.4518 5.99957 100.214 5.97756 102.599 4.75886C107.97 2.01414 114.989 -0.326618 122.072 0.280345C129.514 0.918113 136.542 4.79062 141.255 13.4327L141.569 14.0391C143.07 17.0855 143.5 20.3244 143.5 23.1729V49.8214H133.5V23.1729C133.5 21.2507 133.198 19.6768 132.6 18.4591L132.476 18.2208C129.386 12.5561 125.354 10.5986 121.218 10.2442C116.724 9.85921 111.647 11.3644 107.148 13.6632C102.288 16.1465 96.3622 16.4585 91.2334 14.043L90.7393 13.8009C81.6642 9.16608 75.9099 9.52141 72.4473 10.9659C69.0881 12.3673 66.8343 15.2276 65.5996 18.2159L65.3662 18.8145C65.1248 19.4732 65 20.3571 65 21.6534V49.8214H55V21.6534Z" fill="url(#paint0_linear_1632_1903)"/>
<path d="M22.0775 42.928C32.893 41.1588 48.047 43.1227 68.9964 50.6467L71.6585 51.6077C84.8429 56.3983 96.1652 60.9229 106.068 64.9612C116.676 69.2872 125.519 72.9987 133.38 75.9358C149.11 81.8126 159.872 84.1641 170.752 82.0422C176.381 80.9445 182.273 77.5422 185.749 73.4446C187.461 71.4263 188.376 69.4932 188.625 67.8342C188.84 66.404 188.609 64.9339 187.563 63.3567L187.343 63.0393C184.641 59.3191 178.081 55.0769 163.678 53.7122C154.586 52.8508 145.272 54.8914 135.989 58.1487L121.962 63.0696L110.307 57.3521L132.677 48.7131L134.545 48.0725C143.942 44.9345 154.168 42.7666 164.621 43.7571C180.316 45.2442 190.3 50.095 195.434 57.1624L195.688 57.5208C198.259 61.2365 199.116 65.3165 198.514 69.3215C197.912 73.322 195.912 76.9236 193.375 79.9143C188.353 85.8347 180.404 90.3478 172.667 91.8567C158.936 94.5346 145.964 91.3124 129.88 85.303C121.835 82.297 112.751 78.4865 102.291 74.221C92.4427 70.2046 81.2535 65.7344 68.2435 61.0071L65.6165 60.0579C45.3438 52.7768 32.0746 51.4258 23.6917 52.7971C15.8909 54.0732 12.4565 57.6418 10.9329 61.218L10.7913 61.5647C8.6371 67.054 11.09 74.1542 16.4427 77.6272C23.5045 82.209 34.2436 82.7969 46.1009 80.8001C57.7385 78.8402 69.3436 74.5773 77.1478 70.842L87.8068 76.8521C79.3552 80.8972 60.5107 88.5144 47.762 90.6614C35.4285 92.7384 21.7415 92.7046 11.4857 86.3245L10.9993 86.0159C2.07372 80.2245 -2.58128 68.265 1.48273 57.9104L1.763 57.2288C4.77257 50.2259 11.2799 44.6943 22.0775 42.928Z" fill="url(#paint1_linear_1632_1903)"/>
<defs>
<linearGradient id="paint0_linear_1632_1903" x1="99.25" y1="0" x2="99.25" y2="49.8214" gradientUnits="userSpaceOnUse">
<stop stop-color="#F29E03"/>
<stop offset="1" stop-color="#DA7201"/>
</linearGradient>
<linearGradient id="paint1_linear_1632_1903" x1="0" y1="67.5649" x2="198.698" y2="67.5649" gradientUnits="userSpaceOnUse">
<stop stop-color="#DA7201"/>
<stop offset="1" stop-color="#F29E03"/>
</linearGradient>
</defs>
</svg>
